<svg width="1440" height="527" viewBox="0 0 1440 527" fill="none" xmlns="http://www.w3.org/2000/svg">
<path d="M1440 99.8557C1439.71 100.209 1439.24 100.524 1439.16 100.917C1436.66 113.296 1434.13 125.674 1431.77 138.079C1430.74 143.489 1430.23 148.978 1429.28 154.401C1426.85 168.077 1421.58 180.469 1412.14 190.856C1410.29 192.887 1408.29 194.786 1406.27 196.659C1400.58 201.899 1394.76 207.139 1389.13 212.509C1377.39 223.699 1369.93 238.63 1368.02 254.728C1366.01 270.823 1365.49 287.07 1366.48 303.261C1366.93 312.313 1367.69 321.364 1368.8 330.363C1370.02 340.319 1371.77 350.222 1373.35 360.138C1375.46 373.525 1375.85 386.913 1372.95 400.235C1372.35 402.919 1371.41 405.516 1370.16 407.963C1369.11 410.083 1367.56 411.915 1365.64 413.299C1363.72 414.682 1361.49 415.576 1359.15 415.902C1356.6 416.376 1354.01 416.512 1351.42 416.308C1342.78 415.404 1337.16 410.505 1334.88 402.147C1333.59 397.785 1332.98 393.254 1333.06 388.707C1333.25 382.891 1333.59 377.062 1334.2 371.259C1336.58 348.69 1337.42 325.984 1336.7 303.3C1336.44 295.532 1335.88 287.751 1334.87 280.062C1333.19 267.479 1328.63 255.453 1321.54 244.917C1317.44 238.734 1312.04 234.293 1304.78 232.446C1300.66 231.518 1296.43 231.196 1292.22 231.49C1283.8 231.844 1275.37 232.08 1266.94 232.132C1264.18 232.121 1261.44 231.774 1258.77 231.097C1255.82 230.452 1253.1 228.984 1250.95 226.863C1248.79 224.742 1247.28 222.054 1246.59 219.111C1245.87 216.453 1245.47 213.718 1245.4 210.964C1245.26 206.596 1245.34 202.223 1245.66 197.864C1246.29 189.743 1245.53 181.674 1245.02 173.591C1244.73 169.072 1244.09 164.566 1243.63 160.06C1243.58 158.914 1243.22 157.802 1242.6 156.84C1241.97 155.877 1241.1 155.099 1240.08 154.584C1238.62 154.784 1237.26 155.453 1236.22 156.491C1235.18 157.529 1234.5 158.878 1234.29 160.335C1233.13 166.374 1231.93 172.412 1230.77 178.451C1230.11 181.778 1229.56 185.145 1228.87 188.459C1227.55 194.38 1222.64 197.367 1216.17 195.113C1214.69 194.644 1213.37 193.77 1212.36 192.589C1211.35 191.408 1210.69 189.969 1210.46 188.433C1210 186.049 1209.93 183.599 1209.58 181.189C1208.9 176.552 1208.19 171.915 1207.4 167.291C1207.12 165.854 1206.68 164.453 1206.09 163.112C1205.73 162.037 1205.12 161.06 1204.32 160.256C1199.55 156.235 1196.97 156.51 1194.63 161.92C1193.67 164.668 1193.04 167.523 1192.77 170.421C1191.46 178.726 1190.15 187.044 1188.9 195.375C1188.68 197.498 1187.9 199.523 1186.64 201.248C1185.38 202.973 1183.69 204.336 1181.73 205.2C1177.47 202.894 1175.47 199.083 1174.34 194.485C1172.49 186.94 1170.4 179.434 1168.39 171.954C1167.43 168.522 1166.29 165.129 1165.02 161.815C1164.52 160.27 1163.66 158.863 1162.53 157.703C1161.39 156.544 1160 155.665 1158.46 155.135C1157.02 154.544 1155.43 154.437 1153.92 154.832C1152.41 155.227 1151.07 156.101 1150.11 157.322C1148.87 158.819 1147.82 160.47 1147 162.234C1145 166.479 1143.19 170.814 1141.27 175.098C1140.34 177.168 1139.45 179.25 1138.41 181.268C1137.12 184.119 1134.77 186.362 1131.86 187.529C1130.72 187.943 1129.71 188.665 1128.96 189.616C1128.2 190.567 1127.73 191.708 1127.59 192.913C1125.75 201.801 1124.53 210.803 1123.93 219.858C1123.44 227.495 1124.37 235.066 1125.02 242.664C1125.89 252.497 1126.72 262.343 1127.51 272.203C1127.78 275.595 1127.97 278.988 1128.23 282.381C1129 290.169 1127.67 298.022 1124.37 305.121C1123.35 307.314 1122.03 309.351 1120.44 311.173C1117.19 314.736 1113.24 314.906 1109.73 311.631C1106.29 308.606 1103.98 304.506 1103.17 299.999C1101.91 291.981 1101.74 283.83 1102.66 275.766C1104.31 261.278 1106.23 246.829 1107.91 232.342C1108.91 225.604 1109.35 218.795 1109.22 211.985C1108.97 205.006 1107.39 198.138 1104.58 191.747C1103.21 188.62 1101.27 185.773 1098.86 183.35C1091.86 176.473 1082.43 175.714 1074.57 181.595C1072.36 183.251 1070.41 185.214 1068.77 187.424C1059.7 199.803 1056.2 213.623 1059.2 228.752C1060.75 236.533 1062.46 244.275 1063.99 252.069C1065.19 258.291 1066 264.579 1064.52 270.88C1064.02 272.919 1063.4 274.927 1062.66 276.892C1062.27 277.959 1061.72 278.962 1061.04 279.866C1056.97 285.223 1050.76 284.673 1047.92 278.556C1046.94 276.167 1046.34 273.639 1046.14 271.063C1045.93 268.478 1045.93 265.88 1046.14 263.295C1046.52 257.466 1047.11 251.663 1047.45 245.834C1047.77 240.345 1048.12 234.817 1047.92 229.329C1047.83 226.042 1046.51 222.909 1044.21 220.553C1041.92 218.197 1038.82 216.789 1035.54 216.609C1032.79 216.408 1030.04 216.602 1027.35 217.186C1017.68 219.255 1010.81 225.045 1006.38 233.756C1003.35 239.864 1001.28 246.404 1000.25 253.143C998.51 263.335 999.166 273.486 1000.71 283.625C1002.73 296.908 1004.84 310.19 1006.82 323.486C1007.64 328.29 1007.76 333.188 1007.18 338.026C1006.38 344.007 1003.76 349.597 999.664 354.034C992.571 361.893 981.309 357.217 978.687 350.3C977.89 348.014 977.302 345.659 976.93 343.266C976.218 337.957 976.293 332.572 977.153 327.285C978.084 319.897 979.238 312.522 980.142 305.134C981.454 295.008 982.607 284.87 983.643 274.718C984.521 266.007 985.085 257.283 985.82 248.519C986.501 240.66 984.351 233.101 982.214 225.622C981.731 224.053 980.762 222.677 979.448 221.692C978.649 220.992 977.666 220.536 976.615 220.378C975.565 220.22 974.491 220.367 973.522 220.801C971.854 221.459 970.349 222.469 969.108 223.762C967.868 225.055 966.923 226.601 966.337 228.294C965.142 231.83 964.492 235.527 964.41 239.258C964.252 242.009 964.213 244.773 964.082 247.524C964.039 251.033 962.831 254.429 960.647 257.178C958.352 256.968 956.714 255.318 955.075 253.903C954.009 252.921 952.893 251.994 951.732 251.126C951.431 250.912 951.088 250.764 950.726 250.691C950.364 250.618 949.991 250.623 949.63 250.705C949.27 250.786 948.931 250.943 948.636 251.165C948.34 251.386 948.095 251.668 947.916 251.991C947.29 253.115 946.801 254.312 946.461 255.553C944.135 263.852 943.687 272.565 945.15 281.058C946.846 292.41 948.498 303.794 950.106 315.208C950.627 318.502 950.451 321.869 949.588 325.091C948.725 328.313 947.196 331.319 945.098 333.913C944.211 335.065 943.139 336.061 941.925 336.861C941.36 337.269 940.715 337.553 940.033 337.696C939.351 337.839 938.646 337.837 937.965 337.69C937.284 337.543 936.641 337.254 936.079 336.843C935.516 336.431 935.047 335.906 934.701 335.302C934.065 334.366 933.542 333.359 933.141 332.302C931.247 327.611 930.706 322.483 931.581 317.5C932.249 313.505 933.01 309.536 933.652 305.54C934.762 300.114 934.537 294.5 932.996 289.179C932.224 287.05 931.309 284.976 930.256 282.97C929.81 282.107 929.236 281.316 928.552 280.625C926.48 278.49 924.068 278.647 922.469 281.189C921.558 282.715 920.861 284.359 920.397 286.075C918.176 294.401 917.663 303.089 918.889 311.618C920.502 325.137 922.351 338.616 924.016 352.121C924.553 356.457 924.92 360.819 925.183 365.221C925.638 371.428 923.826 377.589 920.082 382.564C918.698 384.554 916.912 386.232 914.838 387.489C912.458 388.946 909.615 389.449 906.879 388.897C904.143 388.346 901.717 386.78 900.089 384.516C897.932 381.454 896.579 377.9 896.155 374.18C895.538 369.994 895.671 365.732 896.549 361.592C899.735 345.689 901.596 329.604 903.733 313.544C904.481 307.924 905.123 302.292 905.752 296.659C906.237 292.454 906.316 288.262 904.625 284.346C904.433 284.251 904.222 284.202 904.008 284.201C903.794 284.201 903.583 284.249 903.391 284.343C903.199 284.436 903.03 284.573 902.899 284.741C902.767 284.91 902.676 285.106 902.632 285.315C901.651 287.534 900.802 289.808 900.089 292.127C894.254 313.701 888.368 335.262 884.08 357.217C881.514 370.254 879.658 383.421 878.521 396.659C877.604 407.479 876.673 418.286 876.699 429.158C876.829 438.559 877.657 447.938 879.177 457.217C880.488 466.386 881.498 475.556 882.625 484.725C882.861 486.664 883.045 488.655 883.215 490.528C883.948 497.323 883.1 504.195 880.737 510.609C879.268 514.568 877.041 518.203 874.182 521.311C873.085 522.503 871.887 523.599 870.603 524.586C868.565 526.236 865.997 527.091 863.376 526.992C860.755 526.894 858.259 525.848 856.351 524.049C854.894 522.743 853.576 521.29 852.418 519.713C846.889 512.029 843.785 502.869 843.503 493.41C843.466 488.224 843.905 483.046 844.814 477.94C846.833 464.316 849.022 450.719 851.002 437.096C852.549 426.525 854.28 415.967 854.817 405.265C855.566 394.398 854.058 383.494 850.386 373.237C849.641 371.268 848.765 369.352 847.764 367.5C846.628 365.346 844.935 363.537 842.86 362.26C841.959 361.632 840.935 361.2 839.856 360.992C838.777 360.783 837.666 360.803 836.595 361.05C835.524 361.297 834.517 361.765 833.638 362.425C832.76 363.085 832.029 363.921 831.493 364.88C830.033 367.241 829.266 369.964 829.278 372.739C829.278 375.359 829.435 377.979 829.54 380.52C829.986 390.581 831.808 400.457 833.381 410.387C834.499 416.78 834.689 423.3 833.945 429.747C833.644 432.156 833.109 434.53 832.346 436.834C830.956 440.96 827.875 443.017 823.522 443.24C817.557 443.541 813.637 441.144 811.251 435.668C809.914 432.357 809.032 428.88 808.628 425.333C807.657 417.112 807.803 408.797 809.061 400.615C810.543 388.825 812.326 377.193 813.86 365.469C815.456 354.385 815.633 343.143 814.384 332.014C813.926 328.811 813.291 325.636 812.483 322.504C812.102 321.107 811.5 319.781 810.7 318.574C809.389 316.439 807.291 316.164 805.338 317.84C804.268 318.829 803.286 319.907 802.401 321.063C801.168 322.569 800.08 324.194 798.808 325.661C797.874 326.772 796.804 327.763 795.623 328.608C794.987 329.122 794.245 329.49 793.451 329.685C792.657 329.881 791.829 329.899 791.027 329.739C790.225 329.579 789.468 329.245 788.81 328.759C788.151 328.274 787.608 327.65 787.219 326.931C786.397 325.54 785.737 324.058 785.252 322.517C783.658 317.567 782.965 312.372 783.207 307.178C783.285 302.803 783.469 298.427 783.561 294.078C783.685 289.861 783.055 285.656 781.699 281.66C780.5 278.078 777.932 275.116 774.554 273.421C769.703 270.867 763.646 271.011 760.237 277.835C758.216 282.09 756.888 286.641 756.304 291.314C754.378 303.646 753.353 316.101 753.236 328.582C753.144 344.636 754.611 360.662 757.615 376.433C761.653 397.392 765.992 418.351 770.148 439.31C771.819 446.622 772.006 454.194 770.699 461.579C769.931 466.058 768.331 470.355 765.979 474.246C761.731 480.874 755.753 484.516 747.703 484.188C743.442 484.043 739.368 482.406 736.192 479.564C730.567 474.626 726.555 468.836 725.703 461.028C724.426 451.557 724.096 441.982 724.72 432.446C726.162 415.495 727.342 398.519 728.653 381.555C729.663 367.971 730.751 354.401 731.603 340.817C732.673 325.565 730.437 310.262 725.048 295.952C723.362 291.389 721.097 287.062 718.309 283.075C713.807 276.66 707.494 271.731 700.177 268.915C696.415 267.355 692.352 266.656 688.285 266.866C684.218 267.077 680.249 268.193 676.669 270.133C668.711 274.259 662.811 280.219 660.373 289.088C659.286 292.671 658.969 296.442 659.442 300.156C660.635 308.016 661.959 315.876 663.231 323.656C664.306 330.206 664.975 336.756 663.808 343.476C662.787 349.905 660.153 355.971 656.151 361.107C654.957 362.643 653.559 364.01 651.995 365.168C650.375 366.428 648.365 367.083 646.313 367.018C644.261 366.954 642.296 366.174 640.759 364.814C637.074 361.829 634.532 357.665 633.561 353.025C632.686 348.715 632.513 344.291 633.05 339.926C635.043 317.146 636.446 294.34 635.41 271.469C635.135 260.77 633.849 250.121 631.568 239.664C630.118 233.165 627.564 226.962 624.017 221.325C621.563 217.284 618.115 213.938 614 211.605C610.9 209.798 607.379 208.835 603.79 208.815C600.2 208.794 596.668 209.716 593.547 211.488C589.839 213.534 586.654 216.407 584.239 219.884C580.185 225.401 577.185 231.618 575.389 238.223C572.831 247.772 571.103 257.523 570.224 267.369C568.6 286.28 569.198 305.317 572.007 324.089C574.13 339.336 576.425 354.545 578.562 369.779C579.689 376.495 580.189 383.301 580.057 390.109C579.889 394.163 579.179 398.177 577.946 402.043C574.655 412.234 568.1 418.024 555.461 417.002C547.136 416.321 541.144 412.483 538.719 403.287C536.993 396.883 536.172 390.269 536.28 383.638C536.686 366.137 537.185 348.637 537.591 331.136C538.024 314.461 538.614 297.772 538.902 281.084C539.256 259.038 528.728 243.096 510.321 231.949C505.705 229.128 500.215 228.098 494.889 229.054C487.023 230.364 479.157 231.254 471.29 232.302C470.32 232.433 469.35 232.46 468.38 232.577C463.411 233.219 459.543 231.267 456.41 227.534C450.877 220.985 447.599 213.557 448.543 204.781C449.225 198.231 450.169 191.603 450.969 185.014C451.768 178.425 452.49 172.137 453.224 165.706C453.311 164.735 453.346 163.759 453.329 162.785C453.329 157.637 450.261 154.637 445.121 154.768C443.812 154.716 442.518 155.064 441.412 155.766C440.307 156.469 439.442 157.491 438.933 158.698C438.066 160.787 437.399 162.954 436.94 165.169C435.629 171.509 434.318 177.862 433.007 184.202C432.574 186.258 432.063 188.315 431.447 190.319C431.01 191.99 430.022 193.464 428.641 194.503C427.261 195.542 425.57 196.085 423.843 196.044C420.211 196.175 417.064 194.865 415.426 191.38C414.555 189.471 413.947 187.453 413.616 185.381C412.856 180.744 412.305 176.067 411.689 171.417C411.388 169.334 411.06 167.251 410.653 165.195C410.434 164.082 410.091 162.996 409.631 161.959C407.887 158.16 404.688 157.885 402.118 161.265C400.249 163.967 399.202 167.151 399.103 170.435C398.683 174.941 398.487 179.486 397.962 183.992C397.49 188.171 396.874 192.35 395.996 196.45C395.352 198.794 394.474 201.067 393.373 203.235C392.887 204.258 392.221 205.185 391.407 205.973C390.894 206.556 390.258 207.018 389.544 207.326C388.83 207.633 388.057 207.779 387.281 207.751C386.504 207.723 385.743 207.524 385.053 207.166C384.363 206.809 383.761 206.303 383.291 205.685C382.08 204.168 381.152 202.447 380.551 200.602C378.48 194.472 376.618 188.289 374.678 182.093C372.934 176.355 371.334 170.579 369.617 164.841C369.174 163.281 368.591 161.764 367.873 160.309C367.038 158.439 365.628 156.885 363.848 155.872C362.067 154.859 360.01 154.44 357.975 154.676C356.009 154.739 354.115 155.425 352.566 156.636C351.017 157.846 349.895 159.518 349.361 161.409C348.876 162.785 348.679 164.239 348.325 165.653C347.696 168.168 347.171 170.71 346.398 173.172C345.289 176.928 343.209 180.326 340.367 183.023C334.703 188.263 332.068 194.812 330.927 202.253C328.87 216.869 328.343 231.659 329.354 246.384C330.232 262.404 331.845 278.372 332.186 294.432C332.31 300.292 330.611 306.045 327.322 310.898C326.799 311.715 326.206 312.487 325.552 313.203C322.064 316.884 317.541 317.199 313.962 313.609C309.984 309.933 307.627 304.832 307.407 299.423C307.28 290.016 308.07 280.618 309.767 271.364C311.51 260.977 313.07 250.563 313.883 240.057C315.034 225.644 313.455 211.143 309.229 197.314C308.222 193.892 306.837 190.593 305.099 187.477C301.323 180.927 295.555 177.469 287.793 178.006C283.72 178.356 279.864 179.989 276.78 182.669C273.819 185.213 271.348 188.276 269.49 191.708C263.5 202.236 261.276 214.488 263.184 226.447C264.168 233.494 265.806 240.45 267.039 247.406C268.206 254.113 269.254 260.833 270.33 267.552C270.819 270.114 270.677 272.756 269.916 275.25C269.156 277.744 267.799 280.016 265.964 281.87C265.173 282.682 264.293 283.402 263.342 284.018C262.533 284.574 261.585 284.892 260.604 284.936C259.624 284.98 258.651 284.748 257.796 284.267C256.302 283.608 254.99 282.598 253.972 281.323C252.954 280.048 252.26 278.546 251.948 276.945C251.599 274.71 251.498 272.443 251.647 270.185C252.145 260.806 252.84 251.427 253.286 242.048C253.478 238.163 253.434 234.27 253.154 230.39C252.302 219.36 243.466 213.046 232.689 215.653C226.95 216.968 221.776 220.069 217.913 224.508C210.413 233.125 205.637 243.768 204.186 255.095C203.21 262.989 203.365 270.981 204.645 278.831C206.533 292.14 208.578 305.435 210.584 318.718C211.817 326.656 211.358 334.581 210.728 342.493C210.33 346.58 208.468 350.385 205.484 353.208C203.604 355.135 201.268 356.557 198.693 357.345C196.117 358.132 193.385 358.259 190.748 357.715C189.124 357.503 187.578 356.892 186.248 355.936C184.919 354.98 183.848 353.71 183.13 352.239C182.065 350.066 181.306 347.756 180.875 345.375C179.368 337.293 180.18 329.211 181.478 321.194C182.907 312.247 184.625 303.34 186.198 294.406C188.45 282.458 189.765 270.352 190.131 258.2C190.443 250.908 190.004 243.604 188.82 236.402C188.061 232.418 186.801 228.545 185.071 224.875C183.76 222.046 181.793 219.845 178.515 220.015C177.04 220.109 175.632 220.666 174.492 221.607C173.353 222.548 172.54 223.825 172.17 225.255C171.29 227.857 170.688 230.544 170.374 233.272C169.993 236.966 170.072 240.712 169.902 244.432C169.797 247.052 169.574 249.672 169.456 252.2C169.387 253.09 169.132 253.955 168.708 254.741C168.283 255.526 167.698 256.213 166.991 256.759C164.605 258.881 163.058 259.025 160.514 257.073C158.338 255.409 156.319 253.536 154.116 251.65C153.287 251.936 152.545 252.43 151.96 253.083C151.374 253.736 150.966 254.528 150.773 255.383C149.056 261.304 147.758 267.173 148.453 273.539C149.672 284.66 151.468 295.676 153.172 306.732C154.423 314.264 154.294 321.961 152.792 329.446C152.541 330.716 152.19 331.965 151.743 333.18C151.308 334.411 150.538 335.496 149.518 336.313C148.499 337.13 147.272 337.646 145.975 337.804C141.832 338.511 138.882 336.625 138.266 332.407C137.27 326.812 137.097 321.101 137.754 315.456C138.672 309.208 139.577 302.96 140.573 296.724C141.017 293.995 140.838 291.201 140.049 288.551C139.525 286.668 138.593 284.923 137.317 283.443C136.041 281.962 134.453 280.781 132.667 279.984C130.111 278.752 128.301 279.669 127.58 282.459C127.469 282.934 127.39 283.415 127.344 283.9C126.387 292.913 125.299 301.925 124.499 310.95C123.608 320.893 125.089 330.665 126.833 340.424C128.144 347.746 129.154 355.134 130.071 362.535C130.699 367.532 130.477 372.598 129.416 377.521C127.239 387.659 121.458 391.93 110.825 390.803C108.862 390.684 106.965 390.053 105.322 388.973C103.68 387.892 102.349 386.401 101.464 384.647C99.0467 380.197 98.0753 375.106 98.6843 370.08C100.441 357.728 102.316 345.401 104.191 333.075C104.846 328.752 105.712 324.456 106.354 320.133C107.452 312.592 107.773 304.959 107.311 297.353C106.285 278.104 99.1747 259.676 87.0027 244.72C81.769 238.322 76.1239 232.27 70.103 226.604C61.8302 218.587 53.4525 210.702 44.6158 203.314C36.0956 196.317 28.3668 188.411 21.5672 179.735C12.5151 168.228 6.11375 154.868 2.81895 140.607C2.56621 139.171 2.20236 137.757 1.73074 136.376C1.26374 135.559 0.680863 134.813 0.000160043 134.163L0 0H1440L1440 99.8557Z" fill="#FFFAED"/>
</svg>
